<?xml version="1.0" standalone="no"?>
<!DOCTYPE svg PUBLIC "-//W3C//DTD SVG 20010904//EN"
 "http://www.w3.org/TR/2001/REC-SVG-20010904/DTD/svg10.dtd">
<svg version="1.0" xmlns="http://www.w3.org/2000/svg"
 width="512.000000pt" height="512.000000pt" viewBox="0 0 512.000000 512.000000"
 preserveAspectRatio="xMidYMid meet">

<g transform="translate(0.000000,512.000000) scale(0.100000,-0.100000)"
fill="#F5F5F5" stroke="none">
<path d="M820 4890 c-119 -25 -234 -119 -314 -256 -214 -365 -234 -1044 -50
-1674 111 -383 315 -734 512 -882 l60 -45 -73 -97 c-304 -406 -489 -910 -512
-1397 -7 -155 5 -198 73 -258 117 -103 299 -60 354 84 5 13 14 89 20 168 18
258 73 457 186 677 265 516 790 862 1374 906 79 6 98 11 117 30 29 29 29 65 0
92 -28 27 -74 28 -227 8 -217 -29 -376 -78 -576 -176 -587 -289 -965 -852
-1014 -1513 -12 -159 -14 -163 -50 -182 -42 -22 -58 -19 -92 16 l-31 30 7 125
c38 721 450 1447 1041 1837 327 215 710 320 1057 288 155 -14 243 -32 389 -81
760 -252 1372 -1069 1459 -1949 5 -57 10 -130 10 -163 0 -52 -3 -63 -29 -89
-33 -33 -50 -35 -91 -14 -36 18 -37 24 -50 194 -11 145 -22 176 -66 187 -18 5
-34 0 -52 -13 -27 -20 -27 -21 -24 -134 6 -180 16 -245 48 -290 79 -115 233
-128 334 -30 56 54 70 93 70 201 0 302 -102 705 -259 1025 -112 228 -319 527
-445 644 l-25 24 38 46 c121 144 252 399 333 647 l53 162 71 4 c165 11 296
123 334 287 18 77 7 226 -24 333 -179 610 -897 1134 -1292 943 -125 -61 -253
-273 -362 -602 -117 -350 -169 -691 -160 -1043 l5 -187 -62 13 c-298 63 -669
27 -964 -92 -47 -19 -88 -34 -91 -34 -4 0 -2 28 3 63 15 93 14 565 -1 672 -81
564 -274 1034 -532 1296 -157 160 -327 230 -480 199z m219 -172 c173 -84 361
-345 487 -676 132 -349 193 -711 181 -1086 -5 -170 -29 -358 -47 -381 -5 -6
-28 -21 -50 -34 l-42 -23 7 22 c41 130 57 493 31 720 -61 523 -230 893 -466
1016 -47 24 -67 29 -135 29 -70 0 -87 -4 -134 -30 -99 -55 -168 -160 -213
-325 -21 -77 -23 -105 -22 -305 0 -183 4 -241 23 -345 83 -463 245 -828 454
-1027 l75 -71 -34 -33 -33 -32 -53 41 c-266 206 -484 679 -570 1237 -26 171
-32 576 -10 710 24 144 62 278 106 370 115 240 260 313 445 223z m2716 -223
c92 -19 249 -97 355 -175 358 -264 610 -741 524 -993 -19 -56 -86 -121 -140
-136 -97 -27 -221 -4 -370 69 -230 112 -444 317 -581 559 -27 46 -56 92 -65
102 -24 26 -70 24 -95 -3 -49 -54 -128 -329 -164 -571 -23 -152 -31 -459 -16
-588 l7 -67 -54 20 c-43 16 -55 26 -60 47 -14 61 -18 381 -7 501 32 323 115
656 231 919 131 299 218 362 435 316z m-2680 -349 c101 -47 214 -209 283 -406
122 -352 157 -849 80 -1160 -29 -119 -73 -214 -114 -245 -41 -32 -48 -29 -130
57 -183 190 -332 550 -400 963 -26 154 -26 451 0 550 43 167 119 265 206 265
14 0 48 -11 75 -24z m2459 -570 c80 -108 222 -247 339 -330 56 -39 97 -75 97
-85 0 -29 -49 -199 -86 -298 -62 -167 -197 -413 -225 -413 -6 0 -37 19 -71 41
-33 23 -97 62 -141 88 -95 55 -90 43 -107 258 -19 249 15 565 87 813 l16 55
16 -25 c9 -13 43 -60 75 -104z m696 -523 c0 -7 -18 -65 -39 -130 -73 -221
-166 -411 -271 -552 -33 -45 -63 -81 -66 -81 -3 0 -23 14 -45 30 l-38 31 55
80 c100 148 191 350 249 559 14 52 28 100 30 106 5 15 125 -26 125 -43z"/>
<path d="M2797 2220 c-32 -26 -36 -71 -9 -98 11 -11 54 -26 108 -36 126 -25
281 -79 408 -142 59 -30 117 -54 127 -54 30 0 59 36 59 74 0 40 -16 54 -125
108 -135 68 -365 143 -495 163 -38 5 -50 3 -73 -15z"/>
<path d="M3655 1838 c-28 -16 -35 -28 -35 -64 0 -26 12 -41 70 -93 177 -158
348 -410 435 -641 16 -41 37 -83 48 -92 38 -35 92 -17 110 35 15 43 -117 327
-225 484 -84 122 -187 241 -276 319 -74 65 -92 72 -127 52z"/>
</g>
</svg>
