<svg width="24" height="25" viewBox="0 0 24 25" fill="none" xmlns="http://www.w3.org/2000/svg">
<path d="M16.36 14.9974C16.44 14.3374 16.5 13.6774 16.5 12.9974C16.5 12.3174 16.44 11.6574 16.36 10.9974H19.74C19.9 11.6374 20 12.3074 20 12.9974C20 13.6874 19.9 14.3574 19.74 14.9974M14.59 20.5574C15.19 19.4474 15.65 18.2474 15.97 16.9974H18.92C17.96 18.6474 16.43 19.9274 14.59 20.5574ZM14.34 14.9974H9.66C9.56 14.3374 9.5 13.6774 9.5 12.9974C9.5 12.3174 9.56 11.6474 9.66 10.9974H14.34C14.43 11.6474 14.5 12.3174 14.5 12.9974C14.5 13.6774 14.43 14.3374 14.34 14.9974ZM12 20.9574C11.17 19.7574 10.5 18.4274 10.09 16.9974H13.91C13.5 18.4274 12.83 19.7574 12 20.9574ZM8 8.99744H5.08C6.03 7.33744 7.57 6.05744 9.4 5.43744C8.8 6.54744 8.35 7.74744 8 8.99744ZM5.08 16.9974H8C8.35 18.2474 8.8 19.4474 9.4 20.5574C7.57 19.9274 6.03 18.6474 5.08 16.9974ZM4.26 14.9974C4.1 14.3574 4 13.6874 4 12.9974C4 12.3074 4.1 11.6374 4.26 10.9974H7.64C7.56 11.6574 7.5 12.3174 7.5 12.9974C7.5 13.6774 7.56 14.3374 7.64 14.9974M12 5.02744C12.83 6.22744 13.5 7.56744 13.91 8.99744H10.09C10.5 7.56744 11.17 6.22744 12 5.02744ZM18.92 8.99744H15.97C15.65 7.74744 15.19 6.54744 14.59 5.43744C16.43 6.06744 17.96 7.33744 18.92 8.99744ZM12 2.99744C6.47 2.99744 2 7.49744 2 12.9974C2 15.6496 3.05357 18.1931 4.92893 20.0685C5.85752 20.9971 6.95991 21.7337 8.17317 22.2362C9.38642 22.7388 10.6868 22.9974 12 22.9974C14.6522 22.9974 17.1957 21.9439 19.0711 20.0685C20.9464 18.1931 22 15.6496 22 12.9974C22 11.6842 21.7413 10.3839 21.2388 9.1706C20.7362 7.95735 19.9997 6.85495 19.0711 5.92637C18.1425 4.99778 17.0401 4.26119 15.8268 3.75864C14.6136 3.25609 13.3132 2.99744 12 2.99744Z" fill="white"/>
</svg>
